<svg width="444" height="445" xmlns="http://www.w3.org/2000/svg" xmlns:xlink="http://www.w3.org/1999/xlink" overflow="hidden"><defs><clipPath id="clip0"><rect x="2209" y="925" width="444" height="445"/></clipPath><clipPath id="clip1"><rect x="2290" y="1021" width="290" height="292"/></clipPath><clipPath id="clip2"><rect x="2290" y="1021" width="290" height="292"/></clipPath><clipPath id="clip3"><rect x="2290" y="1021" width="290" height="292"/></clipPath></defs><g clip-path="url(#clip0)" transform="translate(-2209 -925)"><path d="M2228 1149.5C2228 1036.56 2319.56 945 2432.5 945 2545.44 945 2637 1036.56 2637 1149.5 2637 1262.44 2545.44 1354 2432.5 1354 2319.56 1354 2228 1262.44 2228 1149.5Z" stroke="#85BAE5" stroke-width="29.7917" stroke-linecap="butt" stroke-linejoin="miter" stroke-miterlimit="8" stroke-opacity="1" fill="none" fill-rule="evenodd"/><g clip-path="url(#clip1)"><g clip-path="url(#clip2)"><g clip-path="url(#clip3)"><path d="M260.094 47.7291 105.427 193.937 31.1146 117.812 5.4375 142.281 104.219 243.781 130.198 219.614 284.562 73.1041Z" fill="#85BAE5" fill-rule="nonzero" fill-opacity="1" transform="matrix(1 0 0 1 2290 1022)"/></g></g></g></g></svg>